<svg id="svg" version="1.1" xmlns="http://www.w3.org/2000/svg" xmlns:xlink="http://www.w3.org/1999/xlink" width="400" height="400" viewBox="0, 0, 400,400"><g id="svgg"><path id="path0" d="M198.000 19.600 C 198.000 19.820,197.683 20.000,197.296 20.000 C 196.909 20.000,196.368 20.360,196.093 20.800 C 195.818 21.240,195.235 21.600,194.797 21.600 C 194.358 21.600,194.000 21.736,194.000 21.902 C 194.000 22.069,193.415 22.460,192.700 22.772 C 191.985 23.084,191.109 23.668,190.753 24.070 C 190.397 24.471,189.812 24.800,189.453 24.800 C 189.094 24.800,188.800 24.980,188.800 25.200 C 188.800 25.420,188.665 25.561,188.500 25.513 C 188.030 25.377,184.800 26.916,184.800 27.277 C 184.800 27.455,184.440 27.600,184.000 27.600 C 183.560 27.600,183.200 27.735,183.200 27.901 C 183.200 28.066,182.345 28.647,181.300 29.191 C 180.255 29.735,179.310 30.275,179.200 30.390 C 178.978 30.623,177.761 31.332,175.500 32.544 C 174.675 32.986,174.000 33.495,174.000 33.674 C 174.000 33.853,173.640 34.000,173.200 34.000 C 172.760 34.000,172.400 34.180,172.400 34.400 C 172.400 34.620,172.080 34.800,171.688 34.800 C 171.297 34.800,170.717 35.160,170.400 35.600 C 170.083 36.040,169.503 36.400,169.112 36.400 C 168.720 36.400,168.400 36.580,168.400 36.800 C 168.400 37.020,168.106 37.200,167.747 37.200 C 167.388 37.200,166.803 37.515,166.447 37.900 C 166.091 38.285,165.530 38.658,165.200 38.730 C 164.870 38.801,164.540 39.026,164.467 39.230 C 164.393 39.433,163.988 39.600,163.567 39.600 C 163.145 39.600,162.800 39.780,162.800 40.000 C 162.800 40.220,162.429 40.400,161.976 40.400 C 161.523 40.400,161.247 40.553,161.363 40.740 C 161.478 40.927,161.084 41.307,160.486 41.585 C 157.408 43.016,155.203 44.232,155.201 44.500 C 155.201 44.665,154.840 44.800,154.400 44.800 C 153.960 44.800,153.600 44.980,153.600 45.200 C 153.600 45.420,153.240 45.600,152.800 45.600 C 152.360 45.600,152.000 45.780,152.000 46.000 C 152.000 46.220,151.730 46.400,151.400 46.400 C 151.070 46.400,150.800 46.580,150.800 46.800 C 150.800 47.020,150.530 47.200,150.200 47.200 C 149.870 47.200,149.600 47.380,149.600 47.600 C 149.600 47.820,149.240 48.000,148.800 48.000 C 148.360 48.000,148.000 48.180,148.000 48.400 C 148.000 48.620,147.640 48.800,147.200 48.800 C 146.760 48.800,146.400 48.980,146.400 49.200 C 146.400 49.420,146.130 49.600,145.800 49.600 C 145.470 49.600,145.200 49.780,145.200 50.000 C 145.200 50.220,144.930 50.400,144.600 50.400 C 144.270 50.400,144.000 50.580,144.000 50.800 C 144.000 51.020,143.752 51.200,143.449 51.200 C 143.146 51.200,142.676 51.468,142.404 51.796 C 142.132 52.123,141.750 52.293,141.555 52.172 C 141.360 52.051,141.200 52.143,141.200 52.376 C 141.200 52.609,140.880 52.800,140.488 52.800 C 140.097 52.800,139.517 53.160,139.200 53.600 C 138.883 54.040,138.303 54.400,137.912 54.400 C 137.520 54.400,137.200 54.580,137.200 54.800 C 137.200 55.020,136.964 55.200,136.675 55.200 C 136.387 55.200,135.764 55.560,135.292 56.000 C 134.820 56.440,134.156 56.800,133.817 56.800 C 133.478 56.800,133.200 56.980,133.200 57.200 C 133.200 57.420,132.840 57.600,132.400 57.600 C 131.960 57.600,131.600 57.780,131.600 58.000 C 131.600 58.220,131.262 58.400,130.849 58.400 C 130.436 58.400,129.874 58.670,129.600 59.000 C 129.326 59.330,128.876 59.600,128.600 59.600 C 128.324 59.600,127.870 59.874,127.592 60.210 C 127.314 60.545,126.995 60.728,126.884 60.617 C 126.772 60.506,126.393 60.726,126.041 61.107 C 125.688 61.488,125.130 61.859,124.800 61.930 C 124.470 62.002,124.140 62.227,124.067 62.430 C 123.993 62.634,123.588 62.800,123.167 62.800 C 122.745 62.800,122.400 62.980,122.400 63.200 C 122.400 63.420,122.029 63.600,121.576 63.600 C 121.123 63.600,120.864 63.780,121.000 64.000 C 121.136 64.220,120.967 64.400,120.624 64.400 C 120.281 64.400,120.000 64.580,120.000 64.800 C 120.000 65.020,119.717 65.200,119.371 65.200 C 119.026 65.200,118.473 65.470,118.143 65.799 C 117.814 66.129,117.062 66.518,116.472 66.663 C 115.882 66.809,115.109 67.259,114.753 67.664 C 114.397 68.069,113.812 68.400,113.453 68.400 C 113.094 68.400,112.800 68.580,112.800 68.800 C 112.800 69.020,112.440 69.200,112.000 69.200 C 111.560 69.200,111.200 69.380,111.200 69.600 C 111.200 69.820,111.012 70.000,110.783 70.000 C 110.554 70.000,109.980 70.360,109.508 70.800 C 109.036 71.240,108.413 71.600,108.125 71.600 C 107.836 71.600,107.600 71.780,107.600 72.000 C 107.600 72.220,107.240 72.400,106.800 72.400 C 106.360 72.400,106.000 72.580,106.000 72.800 C 106.000 73.020,105.680 73.200,105.288 73.200 C 104.897 73.200,104.317 73.560,104.000 74.000 C 103.683 74.440,103.210 74.800,102.949 74.800 C 102.422 74.800,98.316 76.828,98.000 77.244 C 97.890 77.389,96.945 77.908,95.900 78.398 C 94.855 78.887,94.000 79.415,94.000 79.569 C 94.000 79.724,93.370 80.098,92.600 80.400 C 91.830 80.702,91.200 81.096,91.200 81.275 C 91.200 81.454,90.964 81.600,90.675 81.600 C 90.387 81.600,89.764 81.960,89.292 82.400 C 88.820 82.840,88.156 83.200,87.817 83.200 C 87.478 83.200,87.200 83.380,87.200 83.600 C 87.200 83.820,86.829 84.000,86.376 84.000 C 85.923 84.000,85.664 84.180,85.800 84.400 C 85.936 84.620,85.711 84.800,85.299 84.800 C 84.888 84.800,84.164 85.160,83.692 85.600 C 83.220 86.040,82.556 86.400,82.217 86.400 C 81.878 86.400,81.600 86.580,81.600 86.800 C 81.600 87.020,81.229 87.200,80.776 87.200 C 80.323 87.200,80.064 87.380,80.200 87.600 C 80.336 87.820,80.167 88.000,79.824 88.000 C 79.481 88.000,79.200 88.180,79.200 88.400 C 79.200 88.620,78.840 88.800,78.400 88.800 C 77.960 88.800,77.600 88.946,77.600 89.125 C 77.600 89.304,76.970 89.698,76.200 90.000 C 75.430 90.302,74.800 90.671,74.800 90.820 C 74.800 90.970,73.469 91.732,71.843 92.515 C 70.216 93.298,68.765 94.132,68.619 94.369 C 68.473 94.606,68.003 94.800,67.576 94.800 C 67.149 94.800,66.800 94.980,66.800 95.200 C 66.800 95.420,66.607 95.600,66.372 95.600 C 66.137 95.600,65.192 96.111,64.272 96.735 C 63.352 97.359,62.015 98.123,61.300 98.432 C 60.585 98.742,60.000 99.131,60.000 99.298 C 60.000 99.464,59.719 99.600,59.376 99.600 C 59.033 99.600,58.864 99.780,59.000 100.000 C 59.136 100.220,58.877 100.400,58.424 100.400 C 57.971 100.400,57.600 100.580,57.600 100.800 C 57.600 101.020,57.240 101.200,56.800 101.200 C 56.360 101.200,56.000 101.380,56.000 101.600 C 56.000 101.820,55.680 102.000,55.288 102.000 C 54.897 102.000,54.317 102.360,54.000 102.800 C 53.683 103.240,53.180 103.600,52.883 103.600 C 51.119 103.600,51.192 99.604,51.299 190.407 L 51.400 276.068 59.400 280.686 C 68.277 285.810,69.376 286.443,71.400 287.600 C 73.595 288.854,74.747 289.520,85.600 295.800 C 96.453 302.080,97.605 302.746,99.800 304.000 C 101.940 305.223,103.116 305.903,112.600 311.402 C 117.440 314.209,121.940 316.816,122.600 317.197 C 123.260 317.577,124.753 318.453,125.918 319.144 C 127.082 319.835,128.099 320.400,128.177 320.400 C 128.255 320.400,129.531 321.137,131.012 322.037 C 132.494 322.937,134.268 323.993,134.953 324.384 C 135.639 324.775,140.160 327.391,145.000 330.198 C 154.216 335.542,155.573 336.327,157.700 337.544 C 158.415 337.953,159.990 338.879,161.200 339.600 C 162.410 340.321,163.985 341.247,164.700 341.656 C 167.426 343.216,168.807 344.016,175.800 348.086 C 179.760 350.391,183.953 352.844,185.118 353.538 C 186.282 354.232,187.330 354.800,187.446 354.800 C 187.561 354.800,188.408 355.301,189.328 355.912 C 190.248 356.524,191.540 357.289,192.200 357.612 C 192.860 357.935,193.490 358.289,193.600 358.399 C 193.994 358.795,196.213 360.054,196.900 360.271 C 197.285 360.393,197.600 360.631,197.600 360.800 C 197.600 360.969,197.987 361.208,198.461 361.332 C 199.277 361.545,199.308 361.714,199.061 364.639 C 198.917 366.334,198.800 368.331,198.800 369.077 L 198.800 370.434 191.399 370.317 C 186.716 370.243,183.950 370.347,183.865 370.600 C 183.782 370.844,183.496 370.807,183.128 370.503 C 182.797 370.230,182.408 370.125,182.263 370.270 C 182.118 370.415,182.000 370.293,182.000 370.000 C 182.000 369.707,181.883 369.584,181.740 369.727 C 181.596 369.870,181.242 369.675,180.952 369.294 C 180.572 368.794,180.422 368.753,180.413 369.149 C 180.402 369.592,180.284 369.601,179.800 369.200 C 179.309 368.792,179.200 368.820,179.200 369.351 C 179.200 369.733,179.529 370.000,180.000 370.000 C 180.440 370.000,180.800 370.191,180.800 370.424 C 180.800 370.657,180.960 370.749,181.155 370.628 C 181.350 370.507,181.739 370.685,182.019 371.023 C 182.299 371.360,182.789 371.536,183.109 371.414 C 183.505 371.262,183.615 371.383,183.457 371.795 C 183.299 372.209,183.474 372.400,184.013 372.400 C 184.446 372.400,184.800 372.574,184.800 372.787 C 184.800 373.001,185.070 373.071,185.400 372.945 C 185.730 372.818,186.000 372.914,186.000 373.157 C 186.000 373.401,186.371 373.600,186.824 373.600 C 187.277 373.600,187.536 373.780,187.400 374.000 C 187.156 374.396,187.693 374.564,188.740 374.421 C 189.037 374.380,189.162 374.539,189.017 374.773 C 188.869 375.011,189.052 375.200,189.429 375.200 C 189.802 375.200,190.397 375.518,190.753 375.907 C 191.109 376.296,192.300 377.061,193.400 377.607 C 194.500 378.153,195.460 378.735,195.533 378.900 C 195.607 379.065,195.932 379.200,196.257 379.200 C 196.582 379.200,196.736 379.380,196.600 379.600 C 196.460 379.826,196.788 380.000,197.353 380.000 C 197.903 380.000,198.464 380.180,198.600 380.400 C 198.921 380.920,201.479 380.920,201.800 380.400 C 201.936 380.180,202.407 380.000,202.847 380.000 C 203.287 380.000,203.536 379.820,203.400 379.600 C 203.264 379.380,203.418 379.200,203.743 379.200 C 204.068 379.200,204.393 379.065,204.467 378.900 C 204.540 378.735,205.500 378.153,206.600 377.607 C 207.700 377.061,208.891 376.296,209.247 375.907 C 209.603 375.518,210.198 375.200,210.571 375.200 C 210.948 375.200,211.131 375.011,210.983 374.773 C 210.838 374.539,210.963 374.380,211.260 374.421 C 212.307 374.564,212.844 374.396,212.600 374.000 C 212.464 373.780,212.723 373.600,213.176 373.600 C 213.629 373.600,214.000 373.401,214.000 373.157 C 214.000 372.914,214.270 372.818,214.600 372.945 C 214.930 373.071,215.200 373.001,215.200 372.787 C 215.200 372.574,215.554 372.400,215.987 372.400 C 216.526 372.400,216.701 372.209,216.543 371.795 C 216.385 371.383,216.495 371.262,216.891 371.414 C 217.211 371.536,217.701 371.360,217.981 371.023 C 218.261 370.685,218.650 370.507,218.845 370.628 C 219.040 370.749,219.200 370.657,219.200 370.424 C 219.200 370.191,219.560 370.000,220.000 370.000 C 220.471 370.000,220.800 369.733,220.800 369.351 C 220.800 368.820,220.691 368.792,220.200 369.200 C 219.716 369.601,219.598 369.592,219.587 369.149 C 219.578 368.753,219.428 368.794,219.048 369.294 C 218.758 369.675,218.404 369.870,218.260 369.727 C 218.117 369.584,218.000 369.707,218.000 370.000 C 218.000 370.293,217.882 370.415,217.737 370.270 C 217.592 370.125,217.203 370.230,216.872 370.503 C 216.504 370.807,216.218 370.844,216.135 370.600 C 216.050 370.347,213.284 370.243,208.601 370.317 L 201.200 370.434 201.200 369.077 C 201.200 368.331,201.083 366.334,200.939 364.639 C 200.692 361.714,200.723 361.545,201.539 361.332 C 202.013 361.208,202.400 360.969,202.400 360.800 C 202.400 360.631,202.715 360.393,203.100 360.271 C 203.787 360.054,206.006 358.795,206.400 358.399 C 206.510 358.289,207.140 357.935,207.800 357.612 C 208.460 357.289,209.752 356.524,210.672 355.912 C 211.592 355.301,212.439 354.800,212.554 354.800 C 212.670 354.800,213.718 354.232,214.882 353.538 C 216.047 352.844,220.240 350.391,224.200 348.086 C 231.193 344.016,232.574 343.216,235.300 341.656 C 236.015 341.247,237.590 340.321,238.800 339.600 C 240.010 338.879,241.585 337.953,242.300 337.544 C 244.427 336.327,245.784 335.542,255.000 330.198 C 259.840 327.391,264.361 324.775,265.047 324.384 C 265.732 323.993,267.506 322.937,268.988 322.037 C 270.469 321.137,271.745 320.400,271.823 320.400 C 271.901 320.400,272.918 319.835,274.082 319.144 C 275.247 318.453,276.740 317.577,277.400 317.197 C 278.060 316.816,282.560 314.209,287.400 311.402 C 296.884 305.903,298.060 305.223,300.200 304.000 C 302.395 302.746,303.547 302.080,314.400 295.800 C 325.253 289.520,326.405 288.854,328.600 287.600 C 330.624 286.443,331.723 285.810,340.600 280.686 L 348.600 276.068 348.701 190.407 C 348.808 99.604,348.881 103.600,347.117 103.600 C 346.820 103.600,346.317 103.240,346.000 102.800 C 345.683 102.360,345.103 102.000,344.712 102.000 C 344.320 102.000,344.000 101.820,344.000 101.600 C 344.000 101.380,343.640 101.200,343.200 101.200 C 342.760 101.200,342.400 101.020,342.400 100.800 C 342.400 100.580,342.029 100.400,341.576 100.400 C 341.123 100.400,340.864 100.220,341.000 100.000 C 341.136 99.780,340.967 99.600,340.624 99.600 C 340.281 99.600,340.000 99.464,340.000 99.298 C 340.000 99.131,339.415 98.742,338.700 98.432 C 337.985 98.123,336.648 97.359,335.728 96.735 C 334.808 96.111,333.863 95.600,333.628 95.600 C 333.393 95.600,333.200 95.420,333.200 95.200 C 333.200 94.980,332.851 94.800,332.424 94.800 C 331.997 94.800,331.527 94.606,331.381 94.369 C 331.235 94.132,329.784 93.298,328.157 92.515 C 326.531 91.732,325.200 90.970,325.200 90.820 C 325.200 90.671,324.570 90.302,323.800 90.000 C 323.030 89.698,322.400 89.304,322.400 89.125 C 322.400 88.946,322.040 88.800,321.600 88.800 C 321.160 88.800,320.800 88.620,320.800 88.400 C 320.800 88.180,320.519 88.000,320.176 88.000 C 319.833 88.000,319.664 87.820,319.800 87.600 C 319.936 87.380,319.677 87.200,319.224 87.200 C 318.771 87.200,318.400 87.020,318.400 86.800 C 318.400 86.580,318.122 86.400,317.783 86.400 C 317.444 86.400,316.780 86.040,316.308 85.600 C 315.836 85.160,315.112 84.800,314.701 84.800 C 314.289 84.800,314.064 84.620,314.200 84.400 C 314.336 84.180,314.077 84.000,313.624 84.000 C 313.171 84.000,312.800 83.820,312.800 83.600 C 312.800 83.380,312.522 83.200,312.183 83.200 C 311.844 83.200,311.180 82.840,310.708 82.400 C 310.236 81.960,309.613 81.600,309.325 81.600 C 309.036 81.600,308.800 81.454,308.800 81.275 C 308.800 81.096,308.170 80.702,307.400 80.400 C 306.630 80.098,306.000 79.724,306.000 79.569 C 306.000 79.415,305.145 78.887,304.100 78.398 C 303.055 77.908,302.110 77.389,302.000 77.244 C 301.684 76.828,297.578 74.800,297.051 74.800 C 296.790 74.800,296.317 74.440,296.000 74.000 C 295.683 73.560,295.103 73.200,294.712 73.200 C 294.320 73.200,294.000 73.020,294.000 72.800 C 294.000 72.580,293.640 72.400,293.200 72.400 C 292.760 72.400,292.400 72.220,292.400 72.000 C 292.400 71.780,292.164 71.600,291.875 71.600 C 291.587 71.600,290.964 71.240,290.492 70.800 C 290.020 70.360,289.446 70.000,289.217 70.000 C 288.988 70.000,288.800 69.820,288.800 69.600 C 288.800 69.380,288.440 69.200,288.000 69.200 C 287.560 69.200,287.200 69.020,287.200 68.800 C 287.200 68.580,286.906 68.400,286.547 68.400 C 286.188 68.400,285.603 68.069,285.247 67.664 C 284.891 67.259,284.118 66.809,283.528 66.663 C 282.938 66.518,282.186 66.129,281.857 65.799 C 281.527 65.470,280.974 65.200,280.629 65.200 C 280.283 65.200,280.000 65.020,280.000 64.800 C 280.000 64.580,279.719 64.400,279.376 64.400 C 279.033 64.400,278.864 64.220,279.000 64.000 C 279.136 63.780,278.877 63.600,278.424 63.600 C 277.971 63.600,277.600 63.420,277.600 63.200 C 277.600 62.980,277.255 62.800,276.833 62.800 C 276.412 62.800,276.007 62.634,275.933 62.430 C 275.860 62.227,275.530 62.002,275.200 61.930 C 274.870 61.859,274.312 61.488,273.959 61.107 C 273.607 60.726,273.228 60.506,273.116 60.617 C 273.005 60.728,272.686 60.545,272.408 60.210 C 272.130 59.874,271.676 59.600,271.400 59.600 C 271.124 59.600,270.674 59.330,270.400 59.000 C 270.126 58.670,269.564 58.400,269.151 58.400 C 268.738 58.400,268.400 58.220,268.400 58.000 C 268.400 57.780,268.040 57.600,267.600 57.600 C 267.160 57.600,266.800 57.420,266.800 57.200 C 266.800 56.980,266.522 56.800,266.183 56.800 C 265.844 56.800,265.180 56.440,264.708 56.000 C 264.236 55.560,263.613 55.200,263.325 55.200 C 263.036 55.200,262.800 55.020,262.800 54.800 C 262.800 54.580,262.480 54.400,262.088 54.400 C 261.697 54.400,261.117 54.040,260.800 53.600 C 260.483 53.160,259.903 52.800,259.512 52.800 C 259.120 52.800,258.800 52.609,258.800 52.376 C 258.800 52.143,258.640 52.051,258.445 52.172 C 258.250 52.293,257.868 52.123,257.596 51.796 C 257.324 51.468,256.854 51.200,256.551 51.200 C 256.248 51.200,256.000 51.020,256.000 50.800 C 256.000 50.580,255.730 50.400,255.400 50.400 C 255.070 50.400,254.800 50.220,254.800 50.000 C 254.800 49.780,254.530 49.600,254.200 49.600 C 253.870 49.600,253.600 49.420,253.600 49.200 C 253.600 48.980,253.240 48.800,252.800 48.800 C 252.360 48.800,252.000 48.620,252.000 48.400 C 252.000 48.180,251.640 48.000,251.200 48.000 C 250.760 48.000,250.400 47.820,250.400 47.600 C 250.400 47.380,250.130 47.200,249.800 47.200 C 249.470 47.200,249.200 47.020,249.200 46.800 C 249.200 46.580,248.930 46.400,248.600 46.400 C 248.270 46.400,248.000 46.220,248.000 46.000 C 248.000 45.780,247.640 45.600,247.200 45.600 C 246.760 45.600,246.400 45.420,246.400 45.200 C 246.400 44.980,246.040 44.800,245.600 44.800 C 245.160 44.800,244.799 44.665,244.799 44.500 C 244.797 44.232,242.592 43.016,239.514 41.585 C 238.916 41.307,238.522 40.927,238.637 40.740 C 238.753 40.553,238.477 40.400,238.024 40.400 C 237.571 40.400,237.200 40.220,237.200 40.000 C 237.200 39.780,236.855 39.600,236.433 39.600 C 236.012 39.600,235.607 39.433,235.533 39.230 C 235.460 39.026,235.130 38.801,234.800 38.730 C 234.470 38.658,233.909 38.285,233.553 37.900 C 233.197 37.515,232.612 37.200,232.253 37.200 C 231.894 37.200,231.600 37.020,231.600 36.800 C 231.600 36.580,231.280 36.400,230.888 36.400 C 230.497 36.400,229.917 36.040,229.600 35.600 C 229.283 35.160,228.703 34.800,228.312 34.800 C 227.920 34.800,227.600 34.620,227.600 34.400 C 227.600 34.180,227.240 34.000,226.800 34.000 C 226.360 34.000,226.000 33.853,226.000 33.674 C 226.000 33.495,225.325 32.986,224.500 32.544 C 222.239 31.332,221.022 30.623,220.800 30.390 C 220.690 30.275,219.745 29.735,218.700 29.191 C 217.655 28.647,216.800 28.066,216.800 27.901 C 216.800 27.735,216.440 27.600,216.000 27.600 C 215.560 27.600,215.200 27.455,215.200 27.277 C 215.200 26.916,211.970 25.377,211.500 25.513 C 211.335 25.561,211.200 25.420,211.200 25.200 C 211.200 24.980,210.906 24.800,210.547 24.800 C 210.188 24.800,209.603 24.471,209.247 24.070 C 208.891 23.668,208.015 23.084,207.300 22.772 C 206.585 22.460,206.000 22.069,206.000 21.902 C 206.000 21.736,205.642 21.600,205.203 21.600 C 204.765 21.600,204.182 21.240,203.907 20.800 C 203.632 20.360,203.091 20.000,202.704 20.000 C 202.317 20.000,202.000 19.820,202.000 19.600 C 202.000 19.380,201.100 19.200,200.000 19.200 C 198.900 19.200,198.000 19.380,198.000 19.600 M276.000 190.376 C 276.000 248.527,275.848 293.647,275.652 293.768 C 275.460 293.886,275.194 294.530,275.060 295.198 C 274.647 297.267,277.138 297.200,200.374 297.200 C 119.959 297.200,126.400 297.409,126.400 294.800 C 126.400 294.360,126.220 294.000,126.000 294.000 C 125.734 294.000,125.600 259.267,125.600 190.600 L 125.600 87.200 200.800 87.200 L 276.000 87.200 276.000 190.376 M136.700 97.898 C 138.515 97.972,141.485 97.972,143.300 97.898 C 145.115 97.823,143.630 97.763,140.000 97.763 C 136.370 97.763,134.885 97.823,136.700 97.898 M180.300 97.900 C 190.915 97.959,208.285 97.959,218.900 97.900 C 229.515 97.841,220.830 97.792,199.600 97.792 C 178.370 97.792,169.685 97.841,180.300 97.900 M257.100 97.898 C 258.915 97.972,261.885 97.972,263.700 97.898 C 265.515 97.823,264.030 97.763,260.400 97.763 C 256.770 97.763,255.285 97.823,257.100 97.898 M267.679 100.869 C 267.601 101.921,267.580 101.929,266.397 101.338 C 265.433 100.858,264.099 100.780,259.697 100.948 C 252.210 101.233,252.800 101.031,252.800 103.312 C 252.800 106.857,252.677 106.800,260.365 106.800 C 268.333 106.800,268.096 106.928,267.898 102.737 C 267.821 101.122,267.723 100.281,267.679 100.869 M147.278 101.110 C 147.203 101.987,147.156 101.998,146.020 101.410 C 144.403 100.574,135.766 100.553,133.787 101.380 C 132.475 101.928,132.400 102.063,132.400 103.900 C 132.400 106.779,132.456 106.800,140.031 106.800 C 147.884 106.800,147.701 106.895,147.497 102.936 C 147.420 101.431,147.321 100.610,147.278 101.110 M159.995 101.412 C 159.003 101.718,157.497 102.604,156.650 103.380 C 155.802 104.156,154.945 104.690,154.745 104.566 C 154.526 104.431,154.424 119.525,154.490 142.270 L 154.600 180.200 155.581 181.600 C 158.595 185.902,155.271 185.600,199.665 185.600 C 242.403 185.600,239.616 185.755,242.296 183.223 C 244.736 180.917,244.590 183.381,244.707 142.600 L 244.814 105.400 242.623 103.600 C 241.418 102.610,239.750 101.589,238.916 101.331 C 236.507 100.585,162.429 100.662,159.995 101.412 M267.676 130.069 C 267.601 131.121,267.580 131.129,266.397 130.538 C 265.433 130.058,264.099 129.980,259.697 130.148 C 252.192 130.434,252.799 130.219,252.806 132.586 C 252.817 136.061,253.488 136.400,260.355 136.400 C 267.728 136.400,268.188 136.094,267.898 131.383 C 267.817 130.072,267.717 129.481,267.676 130.069 M147.274 130.349 C 147.209 131.184,147.121 131.232,146.539 130.749 C 145.509 129.893,135.809 129.735,133.877 130.542 C 132.458 131.135,132.400 131.236,132.400 133.131 C 132.400 135.993,132.768 136.174,138.932 136.342 C 147.030 136.563,147.810 136.129,147.498 131.579 C 147.415 130.380,147.315 129.827,147.274 130.349 M136.719 156.298 C 138.544 156.372,141.424 156.372,143.119 156.297 C 144.814 156.222,143.320 156.161,139.800 156.162 C 136.280 156.162,134.894 156.224,136.719 156.298 M257.300 156.297 C 259.005 156.372,261.795 156.372,263.500 156.297 C 265.205 156.222,263.810 156.161,260.400 156.161 C 256.990 156.161,255.595 156.222,257.300 156.297 M267.678 159.269 C 267.601 160.321,267.580 160.329,266.397 159.738 C 265.433 159.258,264.099 159.180,259.697 159.348 C 252.210 159.633,252.800 159.431,252.800 161.712 C 252.800 165.259,252.672 165.200,260.400 165.200 C 268.317 165.200,268.126 165.310,267.896 160.892 C 267.820 159.412,267.721 158.681,267.678 159.269 M147.277 159.476 C 147.204 160.302,147.136 160.319,146.100 159.779 C 144.505 158.947,135.205 158.970,133.580 159.810 C 132.523 160.357,132.400 160.620,132.400 162.330 C 132.400 165.176,132.463 165.200,140.066 165.200 C 147.873 165.200,147.734 165.277,147.496 161.091 C 147.418 159.721,147.319 158.994,147.277 159.476 M267.678 188.469 C 267.601 189.521,267.580 189.529,266.397 188.938 C 265.433 188.458,264.099 188.380,259.697 188.548 C 252.210 188.833,252.800 188.631,252.800 190.912 C 252.800 194.459,252.672 194.400,260.400 194.400 C 268.317 194.400,268.126 194.510,267.896 190.092 C 267.820 188.612,267.721 187.881,267.678 188.469 M147.278 188.676 C 147.205 189.502,147.136 189.519,146.100 188.979 C 144.505 188.147,135.205 188.170,133.580 189.010 C 132.523 189.557,132.400 189.820,132.400 191.530 C 132.400 194.370,132.478 194.400,139.909 194.400 C 147.786 194.400,147.700 194.444,147.497 190.510 C 147.420 189.020,147.321 188.194,147.278 188.676 M180.500 194.300 C 191.005 194.359,208.195 194.359,218.700 194.300 C 229.205 194.241,220.610 194.192,199.600 194.192 C 178.590 194.192,169.995 194.241,180.500 194.300 M156.575 196.900 L 155.400 198.200 156.700 197.025 C 157.415 196.379,158.000 195.794,158.000 195.725 C 158.000 195.416,157.670 195.688,156.575 196.900 M161.549 197.600 C 159.280 197.992,158.175 198.541,156.535 200.093 C 155.839 200.751,155.074 201.169,154.835 201.021 C 154.235 200.651,154.225 274.353,154.824 276.511 C 155.314 278.276,157.194 280.554,158.959 281.520 C 160.103 282.147,163.272 282.200,199.439 282.200 C 242.479 282.200,239.659 282.359,242.200 279.795 C 244.772 277.199,244.589 280.137,244.716 239.481 L 244.831 202.362 243.342 200.790 C 242.523 199.926,241.031 198.810,240.027 198.310 L 238.200 197.400 200.800 197.340 C 180.230 197.307,162.567 197.424,161.549 197.600 M267.600 217.627 C 267.600 218.315,267.449 218.399,266.700 218.127 C 265.860 217.822,255.369 217.753,253.600 218.041 C 252.918 218.152,252.800 218.482,252.800 220.270 C 252.800 223.743,253.323 224.000,260.400 224.000 C 267.729 224.000,268.000 223.843,268.000 219.584 C 268.000 218.053,267.910 216.800,267.800 216.800 C 267.690 216.800,267.600 217.172,267.600 217.627 M147.200 217.976 C 147.200 218.696,147.119 218.710,146.100 218.179 C 144.505 217.347,135.205 217.370,133.580 218.210 C 131.941 219.058,131.818 222.327,133.386 223.354 C 135.022 224.426,145.536 224.292,146.725 223.184 C 147.531 222.433,148.122 217.200,147.400 217.200 C 147.290 217.200,147.200 217.549,147.200 217.976 M136.719 243.898 C 138.544 243.972,141.424 243.972,143.119 243.897 C 144.814 243.822,143.320 243.761,139.800 243.762 C 136.280 243.762,134.894 243.824,136.719 243.898 M257.100 243.898 C 258.915 243.972,261.885 243.972,263.700 243.898 C 265.515 243.823,264.030 243.763,260.400 243.763 C 256.770 243.763,255.285 243.823,257.100 243.898 M267.678 246.743 C 267.616 247.488,267.453 247.617,266.900 247.361 C 265.763 246.834,256.106 246.685,254.707 247.173 C 253.745 247.508,253.378 247.492,253.133 247.105 C 252.652 246.348,252.731 251.124,253.214 252.026 C 253.598 252.744,254.114 252.800,260.400 252.800 C 268.317 252.800,268.126 252.910,267.896 248.492 C 267.820 247.012,267.721 246.224,267.678 246.743 M147.278 247.123 C 147.204 247.994,147.151 248.011,146.311 247.423 C 145.045 246.536,135.289 246.526,133.580 247.410 C 132.523 247.957,132.400 248.220,132.400 249.930 C 132.400 252.770,132.478 252.800,139.909 252.800 C 147.786 252.800,147.700 252.844,147.497 248.910 C 147.420 247.420,147.321 246.615,147.278 247.123 M267.600 276.027 C 267.600 276.715,267.449 276.799,266.700 276.527 C 265.786 276.195,255.914 276.121,253.900 276.431 C 252.694 276.616,252.283 279.487,253.214 281.226 C 253.785 282.294,266.320 282.422,267.371 281.371 C 267.961 280.782,268.349 275.200,267.800 275.200 C 267.690 275.200,267.600 275.572,267.600 276.027 M147.277 276.276 C 147.204 277.102,147.136 277.119,146.100 276.579 C 144.505 275.747,135.205 275.770,133.580 276.610 C 132.523 277.157,132.400 277.420,132.400 279.130 C 132.400 281.966,132.487 282.000,139.818 282.000 C 147.633 282.000,147.723 281.952,147.497 277.946 C 147.419 276.546,147.319 275.794,147.277 276.276 M174.890 366.762 C 174.973 367.071,175.428 367.467,175.900 367.641 C 176.563 367.886,176.709 367.827,176.538 367.382 C 176.416 367.064,176.135 366.917,175.913 367.054 C 175.692 367.190,175.337 367.054,175.125 366.751 C 174.800 366.286,174.763 366.288,174.890 366.762 M224.800 366.776 C 224.800 367.056,224.545 367.188,224.233 367.068 C 223.921 366.948,223.575 367.089,223.463 367.380 C 223.324 367.742,223.505 367.845,224.036 367.706 C 224.901 367.480,225.408 366.874,225.040 366.507 C 224.908 366.375,224.800 366.496,224.800 366.776 " stroke="none" fill="#139ac1" fill-rule="evenodd"></path><path id="path1" d="M126.000 190.600 L 126.000 293.600 200.800 293.600 L 275.600 293.600 275.600 190.600 L 275.600 87.600 200.800 87.600 L 126.000 87.600 126.000 190.600 M146.554 97.252 C 148.712 98.235,149.218 105.247,147.246 106.843 C 145.629 108.153,133.937 107.973,132.582 106.618 C 130.814 104.851,131.256 98.459,133.220 97.371 C 134.471 96.678,145.087 96.584,146.554 97.252 M238.694 97.297 C 241.334 97.986,244.414 101.066,245.103 103.706 C 245.801 106.381,245.824 176.928,245.127 179.354 C 244.347 182.073,242.672 184.175,240.200 185.538 C 238.323 186.573,160.841 186.551,158.948 185.515 C 156.556 184.205,155.249 182.776,154.423 180.568 C 153.432 177.922,153.160 105.885,154.130 103.396 C 155.354 100.258,157.376 98.294,160.363 97.342 C 162.517 96.655,236.073 96.613,238.694 97.297 M266.926 97.265 C 268.486 98.096,268.774 98.879,268.787 102.318 C 268.807 107.469,268.599 107.600,260.400 107.600 C 252.201 107.600,251.993 107.469,252.013 102.318 C 252.033 97.146,252.512 96.829,260.326 96.812 C 263.936 96.804,266.376 96.972,266.926 97.265 M147.608 127.500 C 148.773 128.981,148.660 134.608,147.438 135.958 C 146.438 137.063,134.017 137.241,132.600 136.170 C 131.486 135.329,131.171 128.914,132.169 127.391 L 132.818 126.400 139.780 126.400 L 146.742 126.400 147.608 127.500 M268.154 127.386 C 269.173 128.941,269.054 134.369,267.971 135.746 L 267.142 136.800 260.553 136.800 C 252.206 136.800,252.000 136.675,252.000 131.593 C 252.000 126.356,251.884 126.428,260.454 126.413 L 267.508 126.400 268.154 127.386 M146.570 155.659 C 148.677 156.619,149.171 163.684,147.240 165.248 C 145.595 166.580,133.931 166.367,132.543 164.979 C 131.043 163.480,131.223 157.197,132.800 155.986 C 133.992 155.071,144.720 154.816,146.570 155.659 M267.745 156.255 C 268.718 157.227,268.800 157.572,268.800 160.673 C 268.800 165.877,268.607 166.000,260.400 166.000 C 252.193 166.000,252.000 165.877,252.000 160.673 C 252.000 155.406,252.317 155.200,260.400 155.200 C 266.664 155.200,266.695 155.205,267.745 156.255 M147.271 185.610 C 148.458 186.796,148.479 186.886,148.341 190.245 C 148.138 195.180,148.105 195.200,139.938 195.200 C 131.836 195.200,131.600 195.053,131.600 189.992 C 131.600 184.609,131.827 184.461,140.131 184.425 L 146.062 184.400 147.271 185.610 M268.015 185.600 C 269.271 187.236,269.141 192.895,267.818 194.218 C 266.857 195.179,266.700 195.200,260.400 195.200 C 252.201 195.200,251.993 195.069,252.013 189.918 C 252.033 184.620,252.461 184.360,260.924 184.497 C 267.143 184.598,267.260 184.617,268.015 185.600 M239.000 194.000 C 239.136 194.220,239.556 194.400,239.932 194.400 C 241.074 194.400,243.555 196.751,244.505 198.733 L 245.400 200.600 245.506 237.376 C 245.632 280.807,245.785 279.519,240.203 282.054 C 237.608 283.233,161.143 283.195,158.827 282.014 C 156.857 281.009,154.660 278.445,154.064 276.457 C 153.324 273.985,153.422 201.947,154.169 199.801 C 154.933 197.605,156.816 195.474,158.876 194.476 C 160.817 193.535,238.428 193.074,239.000 194.000 M147.608 215.100 C 148.367 216.064,148.456 216.602,148.337 219.458 C 148.128 224.441,148.198 224.400,140.000 224.400 C 131.778 224.400,131.873 224.458,131.659 219.351 C 131.549 216.739,131.663 215.764,132.168 214.993 L 132.818 214.000 139.780 214.000 L 146.742 214.000 147.608 215.100 M268.177 214.889 C 269.180 216.320,269.042 221.985,267.971 223.346 L 267.142 224.400 260.400 224.400 L 253.658 224.400 252.829 223.346 C 252.144 222.476,252.000 221.724,252.000 219.035 C 252.000 213.869,251.782 214.000,260.400 214.000 C 267.340 214.000,267.573 214.027,268.177 214.889 M147.120 243.611 C 148.700 245.083,148.939 251.231,147.474 252.699 C 146.165 254.010,133.929 253.966,132.609 252.645 C 131.054 251.091,131.087 245.237,132.658 243.781 C 134.164 242.386,145.659 242.251,147.120 243.611 M267.745 243.855 C 268.714 244.824,268.800 245.177,268.800 248.210 C 268.800 253.433,268.854 253.400,260.400 253.400 C 251.946 253.400,252.000 253.433,252.000 248.210 C 252.000 243.016,252.335 242.800,260.400 242.800 C 266.664 242.800,266.695 242.805,267.745 243.855 M145.910 272.242 C 148.553 272.771,149.561 280.168,147.246 282.043 C 145.830 283.190,134.162 283.184,132.744 282.035 C 130.599 280.298,131.333 272.736,133.690 272.284 C 135.131 272.007,144.574 271.975,145.910 272.242 M268.036 273.144 C 268.653 273.907,268.800 274.738,268.800 277.462 C 268.800 282.679,268.609 282.800,260.400 282.800 C 252.203 282.800,252.000 282.672,252.000 277.507 C 252.000 272.082,252.064 272.045,261.136 272.137 C 267.066 272.198,267.297 272.232,268.036 273.144 " stroke="none" fill="#ffffff" fill-rule="evenodd"></path><path id="path2" d="M132.880 98.480 C 132.616 98.744,132.400 99.635,132.400 100.460 L 132.400 101.959 133.787 101.380 C 135.727 100.569,144.402 100.574,145.973 101.386 C 147.266 102.055,148.043 100.374,147.182 98.767 C 146.680 97.828,133.790 97.570,132.880 98.480 M158.800 98.840 C 156.864 99.997,155.798 101.196,155.176 102.916 C 154.446 104.935,154.818 105.058,156.632 103.396 C 159.563 100.711,158.100 100.800,199.495 100.800 C 240.478 100.800,239.302 100.733,242.158 103.247 C 244.086 104.944,244.400 105.083,244.400 104.238 C 244.400 102.908,242.507 100.208,240.822 99.133 L 239.043 98.000 199.622 98.001 C 160.337 98.003,160.195 98.006,158.800 98.840 M253.189 98.821 C 252.507 100.096,252.843 101.430,253.800 101.247 C 256.505 100.728,265.275 100.779,266.359 101.319 C 267.656 101.967,268.240 100.741,267.537 98.842 C 267.059 97.549,253.880 97.529,253.189 98.821 M50.602 106.800 C 50.383 107.130,49.978 107.826,49.702 108.346 C 49.304 109.096,49.200 126.941,49.200 194.651 C 49.200 282.927,49.161 280.638,50.700 282.313 C 51.055 282.699,51.200 284.654,51.200 289.057 C 51.200 295.305,51.437 296.400,52.788 296.400 C 53.033 296.400,53.620 296.760,54.092 297.200 C 54.564 297.640,55.187 298.000,55.475 298.000 C 55.764 298.000,56.000 298.180,56.000 298.400 C 56.000 298.620,56.360 298.800,56.800 298.800 C 57.240 298.800,57.600 298.980,57.600 299.200 C 57.600 299.420,57.971 299.600,58.424 299.600 C 58.877 299.600,59.136 299.780,59.000 300.000 C 58.864 300.220,58.999 300.400,59.301 300.400 C 59.602 300.400,60.236 300.760,60.708 301.200 C 61.180 301.640,61.844 302.000,62.183 302.000 C 62.522 302.000,62.801 302.135,62.803 302.300 C 62.805 302.465,63.210 302.787,63.703 303.017 C 65.566 303.882,68.205 305.411,68.333 305.700 C 68.407 305.865,68.649 306.000,68.872 306.000 C 69.094 306.000,69.765 306.348,70.363 306.773 C 70.960 307.199,71.915 307.664,72.485 307.807 C 73.055 307.950,73.854 308.377,74.260 308.756 C 74.667 309.135,75.585 309.703,76.300 310.020 C 77.015 310.336,77.600 310.731,77.600 310.898 C 77.600 311.064,77.920 311.200,78.312 311.200 C 78.703 311.200,79.283 311.560,79.600 312.000 C 79.917 312.440,80.497 312.800,80.888 312.800 C 81.280 312.800,81.600 312.980,81.600 313.200 C 81.600 313.420,81.878 313.600,82.217 313.600 C 82.556 313.600,83.220 313.960,83.692 314.400 C 84.164 314.840,84.787 315.200,85.075 315.200 C 85.364 315.200,85.600 315.380,85.600 315.600 C 85.600 315.820,85.960 316.000,86.400 316.000 C 86.840 316.000,87.200 316.180,87.200 316.400 C 87.200 316.620,87.520 316.800,87.912 316.800 C 88.303 316.800,88.876 317.150,89.185 317.579 C 89.493 318.007,89.878 318.275,90.041 318.175 C 90.203 318.075,90.575 318.226,90.868 318.511 C 91.160 318.797,92.067 319.343,92.883 319.726 C 93.699 320.108,94.471 320.592,94.600 320.800 C 94.729 321.008,95.501 321.489,96.317 321.868 C 97.133 322.248,97.890 322.658,98.000 322.779 C 98.525 323.359,101.513 324.754,101.741 324.526 C 101.883 324.383,102.000 324.477,102.000 324.733 C 102.000 324.990,102.360 325.200,102.800 325.200 C 103.240 325.200,103.600 325.380,103.600 325.600 C 103.600 325.820,104.005 326.003,104.500 326.006 C 105.228 326.011,105.285 326.086,104.800 326.400 C 104.315 326.714,104.372 326.789,105.100 326.794 C 105.595 326.797,106.000 326.980,106.000 327.200 C 106.000 327.420,106.360 327.600,106.800 327.600 C 107.240 327.600,107.600 327.780,107.600 328.000 C 107.600 328.220,107.971 328.400,108.424 328.400 C 108.877 328.400,109.136 328.580,109.000 328.800 C 108.864 329.020,108.999 329.200,109.301 329.200 C 109.602 329.200,110.236 329.560,110.708 330.000 C 111.180 330.440,111.844 330.800,112.183 330.800 C 112.522 330.800,112.800 330.980,112.800 331.200 C 112.800 331.420,113.120 331.600,113.512 331.600 C 113.903 331.600,114.483 331.960,114.800 332.400 C 115.117 332.840,115.697 333.200,116.088 333.200 C 116.480 333.200,116.800 333.380,116.800 333.600 C 116.800 333.820,117.160 334.000,117.600 334.000 C 118.040 334.000,118.400 334.180,118.400 334.400 C 118.400 334.620,118.678 334.800,119.017 334.800 C 119.356 334.800,120.020 335.160,120.492 335.600 C 120.964 336.040,121.587 336.400,121.875 336.400 C 122.164 336.400,122.400 336.580,122.400 336.800 C 122.400 337.020,122.760 337.200,123.200 337.200 C 123.640 337.200,124.000 337.350,124.000 337.532 C 124.000 337.715,124.495 338.120,125.100 338.432 C 125.705 338.744,126.290 339.094,126.400 339.210 C 126.510 339.327,127.365 339.759,128.300 340.172 C 129.235 340.584,130.000 341.074,130.000 341.261 C 130.000 341.447,130.360 341.600,130.800 341.600 C 131.240 341.600,131.600 341.780,131.600 342.000 C 131.600 342.220,131.960 342.400,132.400 342.400 C 132.840 342.400,133.200 342.580,133.200 342.800 C 133.200 343.020,133.520 343.200,133.912 343.200 C 134.303 343.200,134.883 343.560,135.200 344.000 C 135.517 344.440,136.097 344.800,136.488 344.800 C 136.880 344.800,137.200 344.980,137.200 345.200 C 137.200 345.420,137.494 345.600,137.853 345.600 C 138.212 345.600,138.842 345.988,139.253 346.461 C 139.695 346.970,140.000 347.109,140.000 346.800 C 140.000 346.491,140.305 346.630,140.747 347.139 C 141.158 347.612,141.788 348.000,142.147 348.000 C 142.506 348.000,142.800 348.136,142.800 348.302 C 142.800 348.469,143.306 348.829,143.925 349.103 C 144.544 349.376,145.436 349.960,145.908 350.400 C 146.380 350.840,147.044 351.200,147.383 351.200 C 147.722 351.200,148.000 351.380,148.000 351.600 C 148.000 351.820,148.345 352.000,148.767 352.000 C 149.188 352.000,149.597 352.190,149.674 352.422 C 149.751 352.654,150.134 352.890,150.525 352.948 C 150.915 353.005,151.589 353.355,152.022 353.726 C 152.455 354.097,153.088 354.400,153.428 354.400 C 153.799 354.400,153.931 354.588,153.758 354.868 C 153.562 355.185,153.689 355.252,154.150 355.075 C 154.555 354.919,154.914 355.032,155.037 355.352 C 155.240 355.880,158.815 357.846,160.000 358.081 C 160.330 358.146,160.835 358.515,161.123 358.900 C 161.410 359.285,161.905 359.600,162.223 359.600 C 162.540 359.600,162.800 359.810,162.800 360.067 C 162.800 360.323,162.908 360.426,163.040 360.294 C 163.377 359.956,166.426 361.603,166.678 362.259 C 166.792 362.556,167.206 362.800,167.597 362.800 C 168.547 362.800,170.456 363.811,170.127 364.139 C 169.984 364.283,170.191 364.400,170.586 364.400 C 170.982 364.400,171.642 364.788,172.053 365.261 C 172.464 365.735,172.800 365.913,172.800 365.658 C 172.800 365.312,172.997 365.316,173.574 365.677 C 174.000 365.943,174.240 366.335,174.109 366.548 C 173.971 366.770,174.147 366.829,174.522 366.685 C 174.881 366.548,175.283 366.610,175.415 366.824 C 175.547 367.038,175.823 367.109,176.028 366.983 C 176.364 366.775,176.570 367.323,176.447 368.100 C 176.421 368.265,176.670 368.400,177.000 368.400 C 177.330 368.400,177.600 368.580,177.600 368.800 C 177.600 369.020,177.791 369.200,178.024 369.200 C 178.257 369.200,178.336 369.020,178.200 368.800 C 178.064 368.580,178.143 368.400,178.376 368.400 C 178.609 368.400,178.800 368.610,178.800 368.867 C 178.800 369.123,178.918 369.215,179.063 369.070 C 179.208 368.925,179.568 369.007,179.863 369.252 C 180.268 369.588,180.403 369.563,180.413 369.149 C 180.422 368.753,180.572 368.794,180.952 369.294 C 181.242 369.675,181.596 369.870,181.740 369.727 C 181.883 369.584,182.000 369.707,182.000 370.000 C 182.000 370.293,182.118 370.415,182.263 370.270 C 182.408 370.125,182.797 370.230,183.128 370.503 C 183.496 370.807,183.782 370.844,183.865 370.600 C 183.950 370.347,186.716 370.243,191.399 370.317 L 198.800 370.434 198.800 369.077 C 198.800 368.331,198.917 366.334,199.061 364.639 C 199.308 361.714,199.277 361.545,198.461 361.332 C 197.987 361.208,197.600 360.969,197.600 360.800 C 197.600 360.631,197.285 360.393,196.900 360.271 C 196.213 360.054,193.994 358.795,193.600 358.399 C 193.490 358.289,192.860 357.935,192.200 357.612 C 191.540 357.289,190.248 356.524,189.328 355.912 C 188.408 355.301,187.561 354.800,187.446 354.800 C 187.330 354.800,186.282 354.232,185.118 353.538 C 183.953 352.844,179.760 350.391,175.800 348.086 C 168.807 344.016,167.426 343.216,164.700 341.656 C 163.985 341.247,162.410 340.321,161.200 339.600 C 159.990 338.879,158.415 337.953,157.700 337.544 C 155.573 336.327,154.216 335.542,145.000 330.198 C 140.160 327.391,135.639 324.775,134.953 324.384 C 134.268 323.993,132.494 322.937,131.012 322.037 C 129.531 321.137,128.255 320.400,128.177 320.400 C 128.099 320.400,127.082 319.835,125.918 319.144 C 124.753 318.453,123.260 317.577,122.600 317.197 C 121.940 316.816,117.440 314.209,112.600 311.402 C 103.116 305.903,101.940 305.223,99.800 304.000 C 97.605 302.746,96.453 302.080,85.600 295.800 C 74.747 289.520,73.595 288.854,71.400 287.600 C 69.376 286.444,68.278 285.811,59.400 280.686 L 51.400 276.068 51.200 191.134 C 51.067 134.609,50.867 106.401,50.602 106.800 M348.701 191.211 L 348.600 276.068 340.600 280.686 C 331.723 285.810,330.624 286.443,328.600 287.600 C 326.405 288.854,325.253 289.520,314.400 295.800 C 303.547 302.080,302.395 302.746,300.200 304.000 C 298.060 305.223,296.884 305.903,287.400 311.402 C 282.560 314.209,278.060 316.816,277.400 317.197 C 276.740 317.577,275.247 318.453,274.082 319.144 C 272.918 319.835,271.901 320.400,271.823 320.400 C 271.745 320.400,270.469 321.137,268.988 322.037 C 267.506 322.937,265.732 323.993,265.047 324.384 C 264.361 324.775,259.840 327.391,255.000 330.198 C 245.784 335.542,244.427 336.327,242.300 337.544 C 241.585 337.953,240.010 338.879,238.800 339.600 C 237.590 340.321,236.015 341.247,235.300 341.656 C 232.574 343.216,231.193 344.016,224.200 348.086 C 220.240 350.391,216.047 352.844,214.882 353.538 C 213.718 354.232,212.670 354.800,212.554 354.800 C 212.439 354.800,211.592 355.301,210.672 355.912 C 209.752 356.524,208.460 357.289,207.800 357.612 C 207.140 357.935,206.510 358.289,206.400 358.399 C 206.006 358.795,203.787 360.054,203.100 360.271 C 202.715 360.393,202.400 360.631,202.400 360.800 C 202.400 360.969,202.013 361.208,201.539 361.332 C 200.723 361.545,200.692 361.714,200.939 364.639 C 201.083 366.334,201.200 368.331,201.200 369.077 L 201.200 370.434 208.601 370.317 C 213.284 370.243,216.050 370.347,216.135 370.600 C 216.218 370.844,216.504 370.807,216.872 370.503 C 217.203 370.230,217.592 370.125,217.737 370.270 C 217.882 370.415,218.000 370.293,218.000 370.000 C 218.000 369.707,218.117 369.584,218.260 369.727 C 218.404 369.870,218.758 369.675,219.048 369.294 C 219.428 368.794,219.578 368.753,219.587 369.149 C 219.597 369.563,219.732 369.588,220.137 369.252 C 220.432 369.007,220.792 368.925,220.937 369.070 C 221.082 369.215,221.200 369.123,221.200 368.867 C 221.200 368.610,221.391 368.400,221.624 368.400 C 221.857 368.400,221.936 368.580,221.800 368.800 C 221.664 369.020,221.743 369.200,221.976 369.200 C 222.209 369.200,222.400 369.020,222.400 368.800 C 222.400 368.580,222.670 368.400,223.000 368.400 C 223.330 368.400,223.579 368.265,223.553 368.100 C 223.430 367.323,223.636 366.775,223.972 366.983 C 224.177 367.109,224.453 367.038,224.585 366.824 C 224.717 366.610,225.119 366.548,225.478 366.685 C 225.853 366.829,226.029 366.770,225.891 366.548 C 225.760 366.335,226.000 365.943,226.426 365.677 C 227.003 365.316,227.200 365.312,227.200 365.658 C 227.200 365.913,227.536 365.735,227.947 365.261 C 228.358 364.788,229.018 364.400,229.414 364.400 C 229.809 364.400,230.016 364.283,229.873 364.139 C 229.544 363.811,231.453 362.800,232.403 362.800 C 232.794 362.800,233.208 362.556,233.322 362.259 C 233.574 361.603,236.623 359.956,236.960 360.294 C 237.092 360.426,237.200 360.323,237.200 360.067 C 237.200 359.810,237.460 359.600,237.777 359.600 C 238.095 359.600,238.590 359.285,238.877 358.900 C 239.165 358.515,239.670 358.146,240.000 358.081 C 241.185 357.846,244.760 355.880,244.963 355.352 C 245.086 355.032,245.445 354.919,245.850 355.075 C 246.311 355.252,246.438 355.185,246.242 354.868 C 246.069 354.588,246.201 354.400,246.572 354.400 C 246.912 354.400,247.545 354.097,247.978 353.726 C 248.411 353.355,249.085 353.005,249.475 352.948 C 249.866 352.890,250.249 352.654,250.326 352.422 C 250.403 352.190,250.797 352.000,251.200 352.000 C 251.603 352.000,251.993 351.833,252.067 351.630 C 252.140 351.426,252.463 351.201,252.784 351.130 C 253.106 351.058,253.725 350.685,254.160 350.300 C 254.595 349.915,255.187 349.600,255.475 349.600 C 255.764 349.600,256.000 349.420,256.000 349.200 C 256.000 348.980,256.270 348.800,256.600 348.800 C 256.930 348.800,257.200 348.620,257.200 348.400 C 257.200 348.180,257.494 348.000,257.853 348.000 C 258.212 348.000,258.842 347.612,259.253 347.139 C 259.695 346.630,260.000 346.491,260.000 346.800 C 260.000 347.109,260.305 346.970,260.747 346.461 C 261.158 345.988,261.788 345.600,262.147 345.600 C 262.506 345.600,262.800 345.420,262.800 345.200 C 262.800 344.980,263.120 344.800,263.512 344.800 C 263.903 344.800,264.483 344.440,264.800 344.000 C 265.117 343.560,265.697 343.200,266.088 343.200 C 266.480 343.200,266.800 343.020,266.800 342.800 C 266.800 342.580,267.160 342.400,267.600 342.400 C 268.040 342.400,268.400 342.220,268.400 342.000 C 268.400 341.780,268.760 341.600,269.200 341.600 C 269.640 341.600,270.000 341.447,270.000 341.261 C 270.000 341.074,270.765 340.584,271.700 340.172 C 272.635 339.759,273.490 339.327,273.600 339.210 C 273.710 339.094,274.295 338.744,274.900 338.432 C 275.505 338.120,276.000 337.715,276.000 337.532 C 276.000 337.350,276.360 337.200,276.800 337.200 C 277.240 337.200,277.600 337.020,277.600 336.800 C 277.600 336.580,277.836 336.400,278.125 336.400 C 278.413 336.400,279.036 336.040,279.508 335.600 C 279.980 335.160,280.644 334.800,280.983 334.800 C 281.322 334.800,281.600 334.620,281.600 334.400 C 281.600 334.180,281.960 334.000,282.400 334.000 C 282.840 334.000,283.200 333.820,283.200 333.600 C 283.200 333.380,283.520 333.200,283.912 333.200 C 284.303 333.200,284.883 332.840,285.200 332.400 C 285.517 331.960,286.097 331.600,286.488 331.600 C 286.880 331.600,287.200 331.420,287.200 331.200 C 287.200 330.980,287.478 330.800,287.817 330.800 C 288.156 330.800,288.820 330.440,289.292 330.000 C 289.764 329.560,290.398 329.200,290.699 329.200 C 291.001 329.200,291.136 329.020,291.000 328.800 C 290.864 328.580,291.123 328.400,291.576 328.400 C 292.029 328.400,292.400 328.220,292.400 328.000 C 292.400 327.780,292.760 327.600,293.200 327.600 C 293.640 327.600,294.000 327.420,294.000 327.200 C 294.000 326.980,294.405 326.797,294.900 326.794 C 295.628 326.789,295.685 326.714,295.200 326.400 C 294.715 326.086,294.772 326.011,295.500 326.006 C 295.995 326.003,296.400 325.820,296.400 325.600 C 296.400 325.380,296.760 325.200,297.200 325.200 C 297.640 325.200,298.000 324.990,298.000 324.733 C 298.000 324.477,298.117 324.383,298.259 324.526 C 298.487 324.754,301.475 323.359,302.000 322.779 C 302.110 322.658,302.867 322.248,303.683 321.868 C 304.499 321.489,305.271 321.008,305.400 320.800 C 305.529 320.592,306.301 320.108,307.117 319.726 C 307.933 319.343,308.840 318.797,309.132 318.511 C 309.425 318.226,309.797 318.075,309.959 318.175 C 310.122 318.275,310.507 318.007,310.815 317.579 C 311.124 317.150,311.697 316.800,312.088 316.800 C 312.480 316.800,312.800 316.620,312.800 316.400 C 312.800 316.180,313.160 316.000,313.600 316.000 C 314.040 316.000,314.400 315.820,314.400 315.600 C 314.400 315.380,314.636 315.200,314.925 315.200 C 315.213 315.200,315.836 314.840,316.308 314.400 C 316.780 313.960,317.444 313.600,317.783 313.600 C 318.122 313.600,318.400 313.420,318.400 313.200 C 318.400 312.980,318.720 312.800,319.112 312.800 C 319.503 312.800,320.083 312.440,320.400 312.000 C 320.717 311.560,321.297 311.200,321.688 311.200 C 322.080 311.200,322.400 311.054,322.400 310.875 C 322.400 310.696,323.030 310.302,323.800 310.000 C 324.570 309.698,325.200 309.336,325.200 309.196 C 325.200 309.056,326.595 308.248,328.300 307.400 C 330.005 306.552,331.490 305.755,331.600 305.629 C 331.820 305.377,334.880 303.675,336.297 303.017 C 336.790 302.787,337.195 302.465,337.197 302.300 C 337.199 302.135,337.478 302.000,337.817 302.000 C 338.156 302.000,338.820 301.640,339.292 301.200 C 339.764 300.760,340.398 300.400,340.699 300.400 C 341.001 300.400,341.136 300.220,341.000 300.000 C 340.864 299.780,341.123 299.600,341.576 299.600 C 342.029 299.600,342.400 299.420,342.400 299.200 C 342.400 298.980,342.760 298.800,343.200 298.800 C 343.640 298.800,344.000 298.620,344.000 298.400 C 344.000 298.180,344.236 298.000,344.525 298.000 C 344.813 298.000,345.436 297.640,345.908 297.200 C 346.380 296.760,346.967 296.400,347.212 296.400 C 348.563 296.400,348.800 295.305,348.800 289.057 C 348.800 284.654,348.945 282.699,349.300 282.313 C 350.839 280.638,350.800 282.926,350.800 194.667 C 350.800 104.402,350.859 107.626,349.176 106.585 C 348.945 106.442,348.763 138.743,348.701 191.211 M133.062 127.531 C 132.698 127.934,132.400 128.915,132.400 129.711 L 132.400 131.159 133.877 130.542 C 135.809 129.735,145.509 129.893,146.539 130.749 C 147.099 131.214,147.201 131.214,147.205 130.749 C 147.208 130.447,147.309 129.835,147.429 129.388 C 148.103 126.881,135.164 125.209,133.062 127.531 M253.385 127.767 C 252.502 129.114,252.741 130.650,253.800 130.447 C 256.505 129.928,265.275 129.979,266.359 130.519 C 267.502 131.090,267.527 131.079,267.694 129.941 C 268.099 127.184,267.693 127.012,260.504 126.890 L 254.031 126.780 253.385 127.767 M132.880 156.880 C 132.616 157.144,132.400 158.049,132.400 158.890 L 132.400 160.421 133.580 159.810 C 135.176 158.985,144.503 158.946,146.059 159.757 C 147.279 160.394,148.009 158.712,147.182 157.167 C 146.680 156.228,133.790 155.970,132.880 156.880 M253.189 157.221 C 252.507 158.496,252.843 159.830,253.800 159.647 C 256.505 159.128,265.275 159.179,266.359 159.719 C 267.656 160.367,268.240 159.141,267.537 157.242 C 267.059 155.949,253.880 155.929,253.189 157.221 M133.289 185.823 C 132.624 186.288,132.400 186.846,132.400 188.033 L 132.400 189.621 133.580 189.010 C 135.205 188.170,144.505 188.147,146.100 188.979 C 146.897 189.395,147.202 189.421,147.205 189.076 C 147.208 188.814,147.315 188.212,147.442 187.737 C 148.085 185.341,136.260 183.742,133.289 185.823 M253.586 186.014 C 252.482 187.118,252.630 189.071,253.800 188.847 C 256.506 188.328,265.275 188.379,266.359 188.919 C 267.707 189.592,268.315 188.086,267.421 186.290 C 266.747 184.937,254.900 184.700,253.586 186.014 M160.346 194.682 C 158.323 194.993,154.800 198.792,154.800 200.661 C 154.800 201.504,155.352 201.302,156.593 200.007 C 159.207 197.279,157.205 197.400,199.800 197.400 L 238.200 197.400 240.102 198.345 C 241.149 198.865,242.442 199.810,242.977 200.445 C 244.109 201.791,244.400 201.876,244.400 200.861 C 244.400 198.614,241.028 195.075,238.487 194.655 C 236.877 194.388,162.083 194.415,160.346 194.682 M133.062 215.131 C 132.697 215.534,132.400 216.527,132.400 217.342 L 132.400 218.821 133.580 218.210 C 135.205 217.370,144.505 217.347,146.100 218.179 C 146.897 218.595,147.202 218.621,147.205 218.276 C 147.208 218.014,147.315 217.412,147.442 216.937 C 148.103 214.474,135.131 212.845,133.062 215.131 M253.385 215.367 C 252.499 216.719,252.739 218.257,253.800 218.025 C 255.207 217.717,265.768 217.788,266.651 218.111 C 267.697 218.494,268.155 216.965,267.431 215.511 C 266.991 214.627,266.789 214.597,260.504 214.490 L 254.031 214.380 253.385 215.367 M132.880 244.480 C 132.616 244.744,132.400 245.649,132.400 246.490 L 132.400 248.021 133.580 247.410 C 135.242 246.551,145.043 246.534,146.263 247.389 C 147.267 248.093,147.938 246.179,147.182 244.767 C 146.680 243.828,133.790 243.570,132.880 244.480 M253.180 244.837 C 252.455 246.191,253.029 247.718,254.113 247.323 C 255.249 246.909,265.527 246.900,266.651 247.311 C 267.637 247.672,268.107 246.383,267.545 244.864 C 267.055 243.538,253.888 243.514,253.180 244.837 M133.062 273.531 C 132.697 273.934,132.400 274.927,132.400 275.742 L 132.400 277.221 133.580 276.610 C 135.176 275.785,144.503 275.746,146.059 276.557 C 147.410 277.263,148.047 275.341,146.994 273.735 C 146.145 272.438,134.209 272.264,133.062 273.531 M253.378 273.777 C 252.413 275.251,252.744 276.650,254.001 276.405 C 255.626 276.088,265.726 276.173,266.651 276.511 C 267.763 276.918,268.234 275.054,267.362 273.700 C 266.420 272.240,254.342 272.306,253.378 273.777 M126.400 294.800 C 126.400 295.240,126.761 295.961,127.203 296.403 C 128.447 297.647,273.721 297.470,274.632 296.224 C 276.400 293.806,282.849 294.000,200.800 294.000 C 126.667 294.000,126.400 294.003,126.400 294.800 " stroke="none" fill="#0c607f" fill-rule="evenodd"></path><path id="path3" d="M125.797 190.600 C 125.797 247.360,125.843 270.521,125.900 242.068 C 125.957 213.615,125.957 167.175,125.900 138.868 C 125.843 110.561,125.797 133.840,125.797 190.600 M275.797 190.600 C 275.797 247.140,275.843 270.329,275.900 242.132 C 275.957 213.935,275.957 167.675,275.900 139.332 C 275.843 110.989,275.797 134.060,275.797 190.600 M133.738 97.106 C 133.483 97.268,136.244 97.400,139.872 97.400 C 148.096 97.400,148.156 97.439,147.937 102.671 C 147.752 107.109,148.012 106.959,140.081 107.219 L 133.400 107.438 139.856 107.519 C 147.994 107.621,148.106 107.562,148.334 103.033 C 148.511 99.541,148.010 97.915,146.554 97.252 C 145.452 96.750,134.494 96.625,133.738 97.106 M161.115 97.128 C 160.738 97.278,178.056 97.400,199.600 97.400 C 221.144 97.400,238.462 97.278,238.085 97.128 C 237.708 96.979,220.390 96.856,199.600 96.856 C 178.810 96.856,161.492 96.979,161.115 97.128 M254.138 97.106 C 253.884 97.268,256.702 97.400,260.400 97.400 C 264.098 97.400,266.916 97.268,266.662 97.106 C 266.408 96.944,263.590 96.812,260.400 96.812 C 257.210 96.812,254.392 96.944,254.138 97.106 M252.449 98.509 C 252.145 99.077,252.015 100.611,252.101 102.608 L 252.239 105.800 252.320 102.380 C 252.366 100.386,252.597 98.763,252.873 98.487 C 253.134 98.226,253.254 97.921,253.141 97.807 C 253.027 97.694,252.716 98.010,252.449 98.509 M157.000 99.119 C 156.560 99.499,155.938 100.168,155.617 100.605 C 155.297 101.042,155.702 100.780,156.517 100.022 C 157.850 98.782,158.202 98.373,157.900 98.413 C 157.845 98.421,157.440 98.738,157.000 99.119 M242.453 99.777 C 243.033 100.449,243.790 101.540,244.137 102.200 C 244.521 102.931,244.774 103.141,244.784 102.739 C 244.793 102.375,244.035 101.284,243.100 100.315 C 242.165 99.346,241.874 99.104,242.453 99.777 M268.341 101.845 C 268.451 104.467,268.335 105.457,267.818 106.307 L 267.153 107.400 267.976 106.456 C 268.818 105.491,269.246 99.123,268.500 98.662 C 268.335 98.560,268.264 99.992,268.341 101.845 M131.740 102.400 C 131.740 104.270,131.809 105.035,131.893 104.100 C 131.977 103.165,131.977 101.635,131.893 100.700 C 131.809 99.765,131.740 100.530,131.740 102.400 M154.290 102.700 C 153.915 103.542,153.798 112.605,153.792 141.400 L 153.784 179.000 153.992 141.400 C 154.149 112.973,154.320 103.532,154.690 102.700 C 154.960 102.095,155.090 101.600,154.980 101.600 C 154.870 101.600,154.560 102.095,154.290 102.700 M245.000 141.600 C 245.000 162.484,245.122 179.262,245.272 178.885 C 245.421 178.508,245.544 161.730,245.544 141.600 C 245.544 121.470,245.421 104.692,245.272 104.315 C 245.122 103.938,245.000 120.716,245.000 141.600 M253.325 106.900 C 253.995 107.514,254.882 107.590,260.544 107.519 L 267.000 107.438 260.360 107.219 C 256.708 107.099,253.459 106.820,253.141 106.600 C 252.823 106.380,252.906 106.515,253.325 106.900 M147.067 127.430 C 148.395 128.759,148.341 134.869,146.992 135.855 C 145.847 136.692,134.103 136.628,132.889 135.777 C 132.400 135.435,132.000 135.280,132.000 135.433 C 132.000 137.076,145.995 137.552,147.438 135.958 C 149.228 133.981,148.396 126.400,146.389 126.400 C 146.195 126.400,146.500 126.864,147.067 127.430 M252.700 127.388 C 251.519 129.011,251.704 134.541,252.982 135.818 C 253.945 136.781,254.090 136.800,260.553 136.800 L 267.142 136.800 267.971 135.746 C 268.817 134.671,269.243 128.321,268.500 127.861 C 268.335 127.759,268.262 129.261,268.338 131.199 C 268.543 136.407,268.554 136.400,260.400 136.400 C 252.393 136.400,252.400 136.405,252.400 131.526 C 252.400 128.715,252.523 128.121,253.270 127.326 C 253.748 126.817,253.973 126.406,253.770 126.413 C 253.566 126.419,253.085 126.858,252.700 127.388 M131.742 131.400 C 131.741 133.380,131.808 134.240,131.892 133.312 C 131.976 132.384,131.977 130.764,131.895 129.712 C 131.812 128.660,131.743 129.420,131.742 131.400 M133.462 155.500 C 133.360 155.665,136.184 155.800,139.738 155.800 C 143.292 155.800,146.560 155.947,147.000 156.128 C 147.440 156.308,147.350 156.179,146.800 155.842 C 145.730 155.186,133.844 154.881,133.462 155.500 M253.055 156.255 C 251.612 157.697,251.467 163.306,252.832 164.856 L 253.664 165.800 253.032 164.811 C 251.943 163.107,252.152 157.573,253.347 156.450 C 254.354 155.504,265.386 155.274,267.400 156.157 L 268.200 156.508 267.400 155.867 C 265.837 154.614,254.385 154.924,253.055 156.255 M147.800 160.562 C 147.800 163.184,147.630 164.501,147.222 165.039 C 146.665 165.772,146.672 165.774,147.414 165.093 C 148.271 164.308,148.752 159.361,148.132 157.724 C 147.917 157.157,147.800 158.157,147.800 160.562 M268.330 160.261 C 268.430 162.865,268.309 163.898,267.806 164.724 L 267.153 165.800 267.976 164.856 C 268.818 163.891,269.245 157.525,268.500 157.060 C 268.335 156.958,268.259 158.398,268.330 160.261 M131.740 160.800 C 131.740 162.670,131.809 163.435,131.893 162.500 C 131.977 161.565,131.977 160.035,131.893 159.100 C 131.809 158.165,131.740 158.930,131.740 160.800 M136.700 165.898 C 138.515 165.972,141.485 165.972,143.300 165.898 C 145.115 165.823,143.630 165.763,140.000 165.763 C 136.370 165.763,134.885 165.823,136.700 165.898 M257.100 165.898 C 258.915 165.972,261.885 165.972,263.700 165.898 C 265.515 165.823,264.030 165.763,260.400 165.763 C 256.770 165.763,255.285 165.823,257.100 165.898 M154.250 180.000 C 154.645 181.572,155.437 182.933,156.459 183.798 L 157.400 184.594 156.525 183.597 C 156.044 183.049,155.279 181.790,154.825 180.800 C 154.370 179.810,154.112 179.450,154.250 180.000 M244.423 180.400 C 244.400 180.730,244.030 181.450,243.600 182.000 C 243.170 182.550,242.814 183.177,242.809 183.393 C 242.804 183.609,243.262 183.106,243.827 182.274 C 244.392 181.443,244.766 180.546,244.659 180.281 C 244.533 179.972,244.449 180.015,244.423 180.400 M241.774 184.042 C 241.624 184.285,240.759 184.821,239.851 185.233 C 238.943 185.645,238.445 185.986,238.746 185.991 C 239.465 186.003,242.400 184.344,242.400 183.926 C 242.400 183.465,242.096 183.521,241.774 184.042 M133.341 184.797 C 132.868 184.988,132.368 185.329,132.228 185.555 C 132.088 185.781,132.475 185.705,133.087 185.386 C 135.281 184.241,145.806 184.570,147.058 185.822 C 148.408 187.172,148.383 193.238,147.024 194.232 C 145.842 195.096,134.159 195.044,132.789 194.168 L 131.800 193.536 132.744 194.368 C 134.127 195.587,145.767 195.641,147.256 194.435 C 148.900 193.104,148.910 187.249,147.271 185.610 L 146.062 184.400 140.131 184.425 C 136.869 184.439,133.813 184.607,133.341 184.797 M254.137 184.691 C 253.882 184.861,256.360 184.938,259.644 184.863 C 263.375 184.778,266.095 184.894,266.897 185.174 C 267.939 185.537,268.086 185.525,267.672 185.111 C 267.095 184.532,254.940 184.155,254.137 184.691 M252.485 186.013 C 252.209 186.454,252.000 188.181,252.000 190.013 C 252.000 195.056,252.233 195.200,260.400 195.200 C 268.615 195.200,268.800 195.082,268.800 189.842 C 268.800 187.975,268.665 186.364,268.500 186.261 C 268.335 186.159,268.262 187.661,268.338 189.599 C 268.543 194.807,268.554 194.800,260.400 194.800 C 252.381 194.800,252.400 194.812,252.400 189.880 C 252.400 187.857,252.585 186.375,252.873 186.087 C 253.134 185.826,253.262 185.529,253.158 185.425 C 253.055 185.321,252.752 185.586,252.485 186.013 M180.500 186.300 C 191.005 186.359,208.195 186.359,218.700 186.300 C 229.205 186.241,220.610 186.192,199.600 186.192 C 178.590 186.192,169.995 186.241,180.500 186.300 M131.742 189.800 C 131.741 191.780,131.808 192.640,131.892 191.712 C 131.976 190.784,131.977 189.164,131.895 188.112 C 131.812 187.060,131.743 187.820,131.742 189.800 M160.138 193.906 C 159.884 194.068,177.552 194.200,199.400 194.200 C 221.248 194.200,239.040 194.065,238.938 193.900 C 238.698 193.512,160.748 193.518,160.138 193.906 M240.800 195.116 C 241.350 195.487,242.295 196.306,242.900 196.937 C 243.505 197.568,244.000 197.900,244.000 197.673 C 244.000 197.152,240.800 194.393,240.228 194.421 C 239.993 194.433,240.250 194.745,240.800 195.116 M155.831 196.872 C 155.044 197.792,154.401 198.827,154.402 199.172 C 154.404 199.517,154.685 199.260,155.028 198.600 C 155.370 197.940,156.123 196.905,156.700 196.300 C 157.277 195.695,157.640 195.200,157.506 195.200 C 157.372 195.200,156.618 195.952,155.831 196.872 M244.622 200.205 C 245.108 201.820,245.200 207.884,245.200 238.191 C 245.200 279.199,245.345 277.227,242.110 280.340 C 241.115 281.298,240.659 281.889,241.096 281.656 C 242.579 280.862,244.363 278.419,244.983 276.333 C 245.776 273.663,245.927 202.699,245.145 200.360 C 244.426 198.207,243.981 198.076,244.622 200.205 M153.843 200.633 C 153.358 201.895,153.571 274.811,154.064 276.457 C 154.550 278.079,156.734 280.923,158.025 281.613 C 158.439 281.835,157.919 281.157,156.869 280.107 C 153.814 277.052,153.956 279.239,154.085 237.300 C 154.148 216.785,154.174 200.000,154.143 200.000 C 154.111 200.000,153.976 200.285,153.843 200.633 M252.623 214.889 C 251.620 216.320,251.758 221.985,252.829 223.346 L 253.658 224.400 260.400 224.400 L 267.142 224.400 267.971 223.346 C 269.588 221.290,268.910 214.000,267.102 214.000 C 266.853 214.000,267.043 214.367,267.525 214.816 C 268.292 215.530,268.400 216.049,268.400 219.016 C 268.400 224.021,268.434 224.000,260.400 224.000 C 252.393 224.000,252.400 224.005,252.400 219.126 C 252.400 216.315,252.523 215.721,253.270 214.926 C 253.748 214.417,253.938 214.000,253.692 214.000 C 253.447 214.000,252.965 214.400,252.623 214.889 M147.800 219.063 C 147.800 224.145,148.033 224.000,139.855 224.000 C 134.351 224.000,133.348 223.903,132.631 223.300 C 131.801 222.601,131.801 222.601,132.562 223.500 C 133.705 224.850,146.224 224.900,147.437 223.559 C 148.273 222.635,148.787 217.019,148.141 215.868 C 147.934 215.500,147.800 216.761,147.800 219.063 M131.740 218.800 C 131.740 220.670,131.809 221.435,131.893 220.500 C 131.977 219.565,131.977 218.035,131.893 217.100 C 131.809 216.165,131.740 216.930,131.740 218.800 M133.461 243.100 C 133.359 243.265,136.134 243.343,139.628 243.273 L 145.982 243.145 147.039 244.203 C 148.409 245.572,148.358 251.633,146.969 252.701 C 146.491 253.068,146.427 253.225,146.800 253.114 C 148.991 252.466,149.017 244.989,146.835 243.313 C 146.127 242.770,133.788 242.573,133.461 243.100 M253.055 243.855 C 251.252 245.658,251.710 253.200,253.623 253.200 C 253.830 253.200,253.640 252.840,253.200 252.400 C 252.527 251.727,252.400 251.067,252.400 248.229 C 252.400 243.244,252.631 243.108,260.850 243.274 C 264.301 243.343,267.041 243.265,266.939 243.100 C 266.340 242.134,254.110 242.799,253.055 243.855 M268.330 247.861 C 268.430 250.465,268.309 251.498,267.806 252.324 L 267.153 253.400 267.976 252.456 C 268.818 251.491,269.245 245.125,268.500 244.660 C 268.335 244.558,268.259 245.998,268.330 247.861 M131.742 248.200 C 131.741 250.180,131.808 251.040,131.892 250.112 C 131.976 249.184,131.977 247.564,131.895 246.512 C 131.812 245.460,131.743 246.220,131.742 248.200 M136.719 253.498 C 138.544 253.572,141.424 253.572,143.119 253.497 C 144.814 253.422,143.320 253.361,139.800 253.362 C 136.280 253.362,134.894 253.424,136.719 253.498 M257.300 253.497 C 259.005 253.572,261.795 253.572,263.500 253.497 C 265.205 253.422,263.810 253.361,260.400 253.361 C 256.990 253.361,255.595 253.422,257.300 253.497 M137.100 272.297 C 138.695 272.373,141.305 272.373,142.900 272.297 C 144.495 272.221,143.190 272.159,140.000 272.159 C 136.810 272.159,135.505 272.221,137.100 272.297 M257.500 272.297 C 259.095 272.373,261.705 272.373,263.300 272.297 C 264.895 272.221,263.590 272.159,260.400 272.159 C 257.210 272.159,255.905 272.221,257.500 272.297 M147.067 273.430 C 148.395 274.759,148.341 280.869,146.992 281.855 C 145.840 282.698,134.131 282.626,132.789 281.768 L 131.800 281.136 132.744 281.968 C 134.121 283.181,145.766 283.241,147.246 282.043 C 149.155 280.497,148.575 272.400,146.555 272.400 C 146.262 272.400,146.485 272.849,147.067 273.430 M252.623 273.289 C 252.180 273.921,252.000 275.141,252.000 277.507 C 252.000 282.672,252.203 282.800,260.400 282.800 C 268.597 282.800,268.800 282.672,268.800 277.507 C 268.800 273.974,268.192 272.370,266.877 272.432 C 266.330 272.457,266.315 272.504,266.800 272.678 C 268.057 273.127,268.400 274.155,268.400 277.476 C 268.400 282.412,268.420 282.400,260.400 282.400 C 252.381 282.400,252.394 282.408,252.413 277.500 C 252.425 274.219,252.771 273.175,254.000 272.696 C 254.491 272.506,254.477 272.457,253.923 272.432 C 253.550 272.414,252.965 272.800,252.623 273.289 M131.740 277.200 C 131.740 279.070,131.809 279.835,131.893 278.900 C 131.977 277.965,131.977 276.435,131.893 275.500 C 131.809 274.565,131.740 275.330,131.740 277.200 M159.600 282.400 C 159.930 282.613,160.560 282.778,161.000 282.766 L 161.800 282.744 161.000 282.400 C 159.804 281.886,158.805 281.886,159.600 282.400 M238.200 282.400 C 237.696 282.617,237.622 282.744,238.000 282.744 C 238.330 282.744,238.960 282.589,239.400 282.400 C 239.904 282.183,239.978 282.056,239.600 282.056 C 239.270 282.056,238.640 282.211,238.200 282.400 " stroke="none" fill="#93bccc" fill-rule="evenodd"></path><path id="path4" d="M152.600 87.497 C 224.983 87.770,276.000 87.771,276.000 87.500 C 276.000 87.335,242.115 87.244,200.700 87.297 C 159.285 87.351,137.640 87.441,152.600 87.497 M137.100 97.497 C 138.695 97.573,141.305 97.573,142.900 97.497 C 144.495 97.421,143.190 97.359,140.000 97.359 C 136.810 97.359,135.505 97.421,137.100 97.497 M180.700 97.500 C 191.095 97.559,208.105 97.559,218.500 97.500 C 228.895 97.441,220.390 97.392,199.600 97.392 C 178.810 97.392,170.305 97.441,180.700 97.500 M257.500 97.497 C 259.095 97.573,261.705 97.573,263.300 97.497 C 264.895 97.421,263.590 97.359,260.400 97.359 C 257.210 97.359,255.905 97.421,257.500 97.497 M132.388 98.422 C 132.146 98.874,132.036 99.459,132.142 99.722 C 132.252 99.992,132.351 99.908,132.368 99.529 C 132.386 99.159,132.683 98.574,133.029 98.229 C 133.374 97.883,133.471 97.600,133.243 97.600 C 133.015 97.600,132.630 97.970,132.388 98.422 M240.438 98.500 C 240.532 98.555,241.327 99.230,242.204 100.000 L 243.800 101.400 242.422 99.900 C 241.663 99.075,240.868 98.400,240.655 98.400 C 240.441 98.400,240.344 98.445,240.438 98.500 M252.667 98.667 C 252.045 99.288,252.383 105.888,253.065 106.451 C 253.671 106.950,253.686 106.916,253.237 106.073 C 252.922 105.482,252.789 103.920,252.871 101.772 C 252.942 99.916,252.985 98.399,252.967 98.399 C 252.948 98.400,252.813 98.520,252.667 98.667 M147.737 102.200 C 147.739 103.960,147.809 104.630,147.893 103.689 C 147.978 102.749,147.977 101.309,147.891 100.489 C 147.805 99.670,147.736 100.440,147.737 102.200 M268.140 102.400 C 268.140 104.270,268.209 105.035,268.293 104.100 C 268.377 103.165,268.377 101.635,268.293 100.700 C 268.209 99.765,268.140 100.530,268.140 102.400 M132.078 103.038 C 131.962 107.250,131.959 107.248,140.043 107.100 L 146.600 106.979 139.949 106.889 C 132.240 106.786,132.499 106.918,132.299 102.983 L 132.157 100.200 132.078 103.038 M154.252 104.100 C 153.903 105.402,153.956 178.911,154.306 179.462 C 154.468 179.716,154.600 162.661,154.600 141.562 C 154.600 120.463,154.576 103.200,154.547 103.200 C 154.517 103.200,154.385 103.605,154.252 104.100 M244.600 141.600 C 244.600 162.746,244.717 179.632,244.860 179.124 C 245.003 178.616,245.120 161.730,245.120 141.600 C 245.120 121.470,245.003 104.584,244.860 104.077 C 244.717 103.569,244.600 120.455,244.600 141.600 M267.370 106.390 C 267.156 106.604,264.015 106.834,260.390 106.900 L 253.800 107.021 260.451 107.111 C 265.952 107.185,267.188 107.096,267.600 106.600 C 268.153 105.934,267.982 105.778,267.370 106.390 M132.889 127.023 C 132.384 127.377,132.024 128.024,132.054 128.523 C 132.108 129.382,132.112 129.382,132.275 128.557 C 132.557 127.123,133.904 126.806,140.200 126.689 L 146.200 126.577 139.989 126.488 C 134.912 126.416,133.616 126.514,132.889 127.023 M253.270 127.326 C 251.372 129.345,252.336 136.440,254.500 136.388 C 254.775 136.381,254.640 136.172,254.200 135.922 C 252.937 135.206,252.813 134.799,252.806 131.362 C 252.797 126.756,252.724 126.800,260.483 126.800 C 265.567 126.800,266.794 126.911,267.208 127.410 C 267.486 127.745,267.810 127.923,267.928 127.806 C 268.834 126.900,266.257 126.425,260.370 126.413 C 254.366 126.400,254.108 126.434,253.270 127.326 M147.734 131.200 C 147.734 132.850,147.805 133.525,147.891 132.700 C 147.978 131.875,147.978 130.525,147.891 129.700 C 147.805 128.875,147.734 129.550,147.734 131.200 M267.994 131.500 C 267.987 134.798,267.858 135.209,266.600 135.922 C 266.160 136.172,266.025 136.381,266.300 136.388 C 267.714 136.422,268.400 134.859,268.400 131.600 C 268.400 129.840,268.310 128.400,268.200 128.400 C 268.090 128.400,267.997 129.795,267.994 131.500 M132.078 132.251 C 132.015 134.553,132.135 135.208,132.700 135.651 C 133.314 136.133,133.341 136.124,132.920 135.583 C 132.656 135.244,132.377 133.714,132.299 132.183 L 132.157 129.400 132.078 132.251 M147.200 135.100 C 147.200 135.338,146.705 135.714,146.100 135.935 C 145.495 136.156,145.281 136.351,145.624 136.368 C 146.454 136.410,147.878 135.345,147.499 134.966 C 147.335 134.801,147.200 134.862,147.200 135.100 M132.800 156.400 C 132.360 156.840,132.005 157.425,132.012 157.700 C 132.019 157.975,132.228 157.840,132.478 157.400 C 133.228 156.077,133.568 156.012,139.811 156.006 C 144.611 156.001,146.001 156.125,146.711 156.623 C 147.200 156.965,147.600 157.084,147.600 156.887 C 147.600 155.362,134.277 154.923,132.800 156.400 M253.862 155.900 C 253.760 156.065,256.702 156.200,260.400 156.200 C 264.098 156.200,266.916 156.068,266.662 155.906 C 266.052 155.518,254.101 155.513,253.862 155.900 M267.938 159.992 C 268.151 165.422,268.473 165.200,260.400 165.200 C 252.369 165.200,252.671 165.400,252.871 160.210 C 252.942 158.375,252.865 156.958,252.700 157.060 C 252.535 157.163,252.400 158.727,252.400 160.535 C 252.400 165.705,252.234 165.600,260.400 165.600 C 268.553 165.600,268.404 165.693,268.394 160.611 C 268.391 158.845,268.256 157.192,268.094 156.937 C 267.932 156.683,267.862 158.058,267.938 159.992 M147.731 160.600 C 147.733 162.140,147.805 162.721,147.892 161.891 C 147.979 161.061,147.977 159.801,147.889 159.091 C 147.800 158.381,147.729 159.060,147.731 160.600 M132.078 161.438 C 131.963 165.607,131.950 165.600,140.051 165.600 C 146.534 165.600,147.622 165.401,147.588 164.220 C 147.581 163.989,147.392 164.115,147.168 164.500 C 146.805 165.123,146.018 165.200,140.029 165.200 C 132.220 165.200,132.500 165.338,132.299 161.383 L 132.157 158.600 132.078 161.438 M155.383 181.865 C 155.714 182.560,156.483 183.522,157.092 184.001 C 159.740 186.084,158.012 186.007,199.749 185.904 L 238.600 185.808 199.400 185.604 C 170.487 185.454,159.923 185.276,159.145 184.927 C 158.011 184.419,156.628 183.152,155.491 181.580 C 154.787 180.607,154.786 180.609,155.383 181.865 M241.636 183.757 C 241.381 184.063,240.634 184.538,239.974 184.811 C 239.314 185.084,238.855 185.388,238.953 185.486 C 239.051 185.584,239.552 185.443,240.066 185.173 C 241.420 184.460,242.976 183.200,242.503 183.200 C 242.280 183.200,241.890 183.451,241.636 183.757 M136.900 185.097 C 138.605 185.172,141.395 185.172,143.100 185.097 C 144.805 185.022,143.410 184.961,140.000 184.961 C 136.590 184.961,135.195 185.022,136.900 185.097 M257.718 185.098 C 259.433 185.173,262.133 185.172,263.718 185.097 C 265.303 185.021,263.900 184.959,260.600 184.960 C 257.300 184.961,256.003 185.022,257.718 185.098 M132.416 185.781 C 132.151 186.100,132.018 186.685,132.121 187.081 C 132.270 187.657,132.316 187.626,132.354 186.920 C 132.379 186.436,132.715 185.856,133.100 185.632 C 133.485 185.408,133.597 185.219,133.349 185.212 C 133.101 185.205,132.681 185.461,132.416 185.781 M252.896 185.995 C 252.154 187.184,252.245 192.853,253.022 193.824 C 253.623 194.574,253.630 194.570,253.222 193.726 C 252.518 192.270,252.687 186.788,253.462 185.931 C 253.826 185.529,253.959 185.200,253.758 185.200 C 253.557 185.200,253.169 185.558,252.896 185.995 M147.737 189.800 C 147.739 191.560,147.809 192.230,147.893 191.289 C 147.978 190.349,147.977 188.909,147.891 188.089 C 147.805 187.270,147.736 188.040,147.737 189.800 M268.000 189.826 C 268.000 191.491,267.810 193.246,267.578 193.726 C 267.170 194.570,267.177 194.574,267.778 193.824 C 268.363 193.093,268.741 186.800,268.200 186.800 C 268.090 186.800,268.000 188.162,268.000 189.826 M132.078 190.651 C 132.015 192.953,132.135 193.608,132.700 194.051 C 133.314 194.533,133.341 194.524,132.920 193.983 C 132.656 193.644,132.377 192.114,132.299 190.583 L 132.157 187.800 132.078 190.651 M159.800 194.400 C 159.296 194.617,159.222 194.744,159.600 194.744 C 159.930 194.744,160.560 194.589,161.000 194.400 C 161.504 194.183,161.578 194.056,161.200 194.056 C 160.870 194.056,160.240 194.211,159.800 194.400 M237.600 194.084 C 237.710 194.193,238.426 194.493,239.191 194.751 C 239.956 195.010,240.406 195.050,240.191 194.839 C 239.976 194.629,239.260 194.329,238.600 194.172 C 237.940 194.016,237.490 193.976,237.600 194.084 M136.700 194.698 C 138.515 194.772,141.485 194.772,143.300 194.698 C 145.115 194.623,143.630 194.563,140.000 194.563 C 136.370 194.563,134.885 194.623,136.700 194.698 M257.100 194.698 C 258.915 194.772,261.885 194.772,263.700 194.698 C 265.515 194.623,264.030 194.563,260.400 194.563 C 256.770 194.563,255.285 194.623,257.100 194.698 M157.076 196.100 C 155.830 197.333,155.825 197.349,156.981 196.403 C 157.652 195.855,158.371 195.270,158.580 195.103 C 158.789 194.936,158.831 194.800,158.674 194.800 C 158.517 194.800,157.798 195.385,157.076 196.100 M242.985 197.500 C 243.602 198.435,244.183 199.200,244.276 199.200 C 244.564 199.200,243.033 196.766,242.432 196.269 C 242.120 196.011,242.368 196.565,242.985 197.500 M154.252 200.500 C 153.918 201.747,153.992 275.238,154.328 276.085 C 154.478 276.462,154.600 259.407,154.600 238.185 C 154.600 216.963,154.576 199.600,154.547 199.600 C 154.517 199.600,154.385 200.005,154.252 200.500 M244.600 238.200 C 244.600 259.236,244.717 276.032,244.860 275.524 C 245.003 275.016,245.120 258.220,245.120 238.200 C 245.120 218.180,245.003 201.384,244.860 200.877 C 244.717 200.369,244.600 217.165,244.600 238.200 M132.889 214.623 C 132.390 214.972,132.020 215.631,132.046 216.123 C 132.089 216.931,132.107 216.937,132.280 216.200 C 132.658 214.588,133.467 214.400,140.027 214.400 C 145.161 214.400,146.394 214.511,146.808 215.010 C 147.086 215.345,147.410 215.523,147.528 215.406 C 148.923 214.010,134.839 213.257,132.889 214.623 M253.270 214.926 C 251.707 216.589,252.046 222.786,253.747 223.660 C 254.570 224.084,254.569 224.069,253.700 223.234 C 252.908 222.473,252.800 221.969,252.800 219.046 C 252.800 214.271,252.697 214.331,260.716 214.480 C 264.241 214.546,267.041 214.465,266.939 214.300 C 266.396 213.426,254.152 213.986,253.270 214.926 M267.937 218.587 C 268.065 222.050,268.011 222.361,267.137 223.199 C 266.270 224.032,266.263 224.066,267.053 223.660 C 268.337 223.001,269.097 216.918,268.094 215.337 C 267.932 215.082,267.862 216.545,267.937 218.587 M147.734 218.800 C 147.734 220.450,147.805 221.125,147.891 220.300 C 147.978 219.475,147.978 218.125,147.891 217.300 C 147.805 216.475,147.734 217.150,147.734 218.800 M132.079 219.838 C 132.004 222.549,132.965 224.769,133.837 223.897 C 133.964 223.769,133.701 223.468,133.252 223.228 C 132.568 222.862,132.412 222.319,132.297 219.895 L 132.159 217.000 132.079 219.838 M140.040 243.580 C 143.472 243.701,146.541 243.980,146.859 244.200 C 147.177 244.420,147.094 244.285,146.675 243.900 C 146.009 243.290,145.136 243.210,139.856 243.280 L 133.800 243.360 140.040 243.580 M257.300 243.497 C 259.005 243.572,261.795 243.572,263.500 243.497 C 265.205 243.422,263.810 243.361,260.400 243.361 C 256.990 243.361,255.595 243.422,257.300 243.497 M132.416 244.181 C 132.151 244.500,132.018 245.085,132.121 245.481 C 132.270 246.057,132.316 246.026,132.354 245.320 C 132.379 244.836,132.715 244.256,133.100 244.032 C 133.485 243.808,133.597 243.619,133.349 243.612 C 133.101 243.605,132.681 243.861,132.416 244.181 M267.371 244.229 C 268.168 245.025,268.267 251.089,267.500 252.118 C 267.074 252.689,266.022 252.806,260.400 252.905 L 253.800 253.021 260.477 253.111 C 268.527 253.218,268.400 253.296,268.400 248.285 C 268.400 245.200,267.975 243.600,267.157 243.600 C 266.929 243.600,267.026 243.883,267.371 244.229 M252.667 244.667 C 252.093 245.240,252.384 251.427,253.022 252.224 C 253.616 252.965,253.624 252.958,253.193 252.073 C 252.931 251.534,252.797 249.734,252.871 247.772 C 252.942 245.916,252.985 244.399,252.967 244.399 C 252.948 244.400,252.813 244.520,252.667 244.667 M147.734 248.000 C 147.734 249.650,147.805 250.325,147.891 249.500 C 147.978 248.675,147.978 247.325,147.891 246.500 C 147.805 245.675,147.734 246.350,147.734 248.000 M132.078 249.038 C 131.962 253.250,131.959 253.248,140.043 253.100 L 146.600 252.979 139.949 252.889 C 132.240 252.786,132.499 252.918,132.299 248.983 L 132.157 246.200 132.078 249.038 M136.719 272.698 C 138.544 272.772,141.424 272.772,143.119 272.697 C 144.814 272.622,143.320 272.561,139.800 272.562 C 136.280 272.562,134.894 272.624,136.719 272.698 M257.300 272.697 C 259.005 272.772,261.795 272.772,263.500 272.697 C 265.205 272.622,263.810 272.561,260.400 272.561 C 256.990 272.561,255.595 272.622,257.300 272.697 M132.480 273.280 C 132.216 273.544,132.021 274.129,132.046 274.580 C 132.092 275.383,132.097 275.384,132.289 274.600 C 132.398 274.160,132.669 273.575,132.892 273.300 C 133.410 272.662,133.112 272.648,132.480 273.280 M252.896 273.595 C 252.154 274.784,252.245 280.453,253.022 281.424 C 253.623 282.174,253.630 282.170,253.222 281.326 C 252.518 279.870,252.687 274.388,253.462 273.531 C 253.826 273.129,253.959 272.800,253.758 272.800 C 253.557 272.800,253.169 273.158,252.896 273.595 M267.994 277.300 C 267.985 282.004,268.368 281.763,260.516 282.019 L 253.800 282.238 260.300 282.319 C 268.454 282.421,268.400 282.453,268.400 277.400 C 268.400 275.530,268.310 274.000,268.200 274.000 C 268.090 274.000,267.997 275.485,267.994 277.300 M147.734 277.200 C 147.734 278.850,147.805 279.525,147.891 278.700 C 147.978 277.875,147.978 276.525,147.891 275.700 C 147.805 274.875,147.734 275.550,147.734 277.200 M132.078 278.251 C 132.015 280.553,132.135 281.208,132.700 281.651 C 133.314 282.133,133.341 282.124,132.920 281.583 C 132.656 281.244,132.377 279.714,132.299 278.183 L 132.157 275.400 132.078 278.251 M155.600 278.925 C 155.600 278.994,156.185 279.579,156.900 280.225 L 158.200 281.400 157.025 280.100 C 155.930 278.888,155.600 278.616,155.600 278.925 M242.074 279.882 C 241.564 280.431,241.217 280.950,241.303 281.036 C 241.388 281.122,241.974 280.654,242.604 279.996 C 243.234 279.338,243.581 278.819,243.375 278.842 C 243.169 278.865,242.583 279.334,242.074 279.882 M146.816 281.381 C 146.419 281.859,145.005 282.005,139.859 282.101 L 133.400 282.221 139.824 282.311 C 145.971 282.396,148.507 281.974,147.556 281.023 C 147.423 280.890,147.090 281.051,146.816 281.381 M161.115 282.472 C 161.492 282.621,178.810 282.744,199.600 282.744 C 220.390 282.744,237.708 282.621,238.085 282.472 C 238.462 282.322,221.144 282.200,199.600 282.200 C 178.056 282.200,160.738 282.322,161.115 282.472 M200.600 293.600 L 125.400 293.803 200.476 293.902 C 250.202 293.967,275.636 293.865,275.800 293.600 C 275.936 293.380,275.992 293.244,275.924 293.298 C 275.856 293.353,241.960 293.488,200.600 293.600 " stroke="none" fill="#64adc4" fill-rule="evenodd"></path></g></svg>